<?xml version="1.0" encoding="UTF-8" standalone="no"?>
<!-- Created with Inkscape (http://www.inkscape.org/) -->

<svg
   xmlns:dc="http://purl.org/dc/elements/1.1/"
   xmlns:cc="http://creativecommons.org/ns#"
   xmlns:rdf="http://www.w3.org/1999/02/22-rdf-syntax-ns#"
   xmlns:svg="http://www.w3.org/2000/svg"
   xmlns="http://www.w3.org/2000/svg"
   xmlns:sodipodi="http://sodipodi.sourceforge.net/DTD/sodipodi-0.dtd"
   xmlns:inkscape="http://www.inkscape.org/namespaces/inkscape"
   width="256"
   height="256"
   viewBox="0 0 256 256"
   id="svg2"
   version="1.1"
   inkscape:version="0.91 r13725"
   sodipodi:docname="books.svg">
  <defs
     id="defs4" />
  <sodipodi:namedview
     id="base"
     pagecolor="#ffffff"
     bordercolor="#666666"
     borderopacity="1.0"
     inkscape:pageopacity="0.0"
     inkscape:pageshadow="2"
     inkscape:zoom="1.4"
     inkscape:cx="69.337181"
     inkscape:cy="159.82837"
     inkscape:document-units="px"
     inkscape:current-layer="layer1"
     showgrid="false"
     units="px"
     showguides="true"
     inkscape:guide-bbox="true"
     inkscape:window-width="1920"
     inkscape:window-height="1021"
     inkscape:window-x="0"
     inkscape:window-y="27"
     inkscape:window-maximized="1">
    <sodipodi:guide
       position="142.14286,243.57143"
       orientation="0,1"
       id="guide4136" />
    <sodipodi:guide
       position="15,201.78571"
       orientation="1,0"
       id="guide4138" />
    <sodipodi:guide
       position="244.28571,118.57143"
       orientation="1,0"
       id="guide4140" />
    <sodipodi:guide
       position="175,10.714286"
       orientation="0,1"
       id="guide4142" />
    <sodipodi:guide
       position="46.071429,197.5"
       orientation="1,0"
       id="guide4185" />
    <sodipodi:guide
       position="31.071429,205"
       orientation="0,1"
       id="guide4187" />
    <sodipodi:guide
       position="106.42857,243.57143"
       orientation="1,0"
       id="guide4195" />
    <sodipodi:guide
       position="-0.35714286,236.42857"
       orientation="0,1"
       id="guide4197" />
    <sodipodi:guide
       position="31.071429,205"
       orientation="0,1"
       id="guide4219" />
    <sodipodi:guide
       position="-8.75,197.32143"
       orientation="0,1"
       id="guide4221" />
    <sodipodi:guide
       position="33.84011,16.162441"
       orientation="0,1"
       id="guide4225" />
    <sodipodi:guide
       position="22.142857,16.162441"
       orientation="1,0"
       id="guide4237" />
    <sodipodi:guide
       position="228.29448,172.23101"
       orientation="1,0"
       id="guide4358" />
  </sodipodi:namedview>
  <metadata
     id="metadata7">
    <rdf:RDF>
      <cc:Work
         rdf:about="">
        <dc:format>image/svg+xml</dc:format>
        <dc:type
           rdf:resource="http://purl.org/dc/dcmitype/StillImage" />
        <dc:title></dc:title>
      </cc:Work>
    </rdf:RDF>
  </metadata>
  <g
     inkscape:label="Layer 1"
     inkscape:groupmode="layer"
     id="layer1"
     transform="translate(0,-796.36216)">
    <path
       style="opacity:1;fill:#8d8d8d;fill-opacity:0.4448052;stroke:#545454;stroke-width:10;stroke-linecap:round;stroke-linejoin:round;stroke-miterlimit:4;stroke-dasharray:none;stroke-opacity:1"
       d="m 78.10951,244.93339 c 3.807335,-2.77792 7.226257,-5.05076 7.597609,-5.05076 0.371353,0 0.675186,1.55852 0.675186,3.46338 0,6.253 1.17008,6.64 20.022665,6.62249 l 16.8479,-0.0157 8.59061,-6.11148 8.59061,-6.11148 19.69366,-0.18631 19.69367,-0.18632 24.24366,-16.99033 c 13.33401,-9.34467 25.26644,-18.12047 26.5165,-19.50176 l 2.27284,-2.51145 0,-67.92693 c 0,-51.485191 -0.2934,-68.220348 -1.21218,-69.139122 -1.95357,-1.953575 -4.36161,-1.434235 -10.77296,2.32335 -5.18701,3.040024 -6.93499,3.535534 -12.47213,3.535534 -6.39356,0 -6.44659,-0.02354 -7.40617,-3.282995 -1.21261,-4.118918 -4.2516,-4.731403 -9.14642,-1.843387 -1.95378,1.152755 -3.73244,2.095925 -3.95257,2.095925 -0.22013,0 -0.53508,-12.083294 -0.69987,-26.851754 -0.28149,-25.225752 -0.41837,-26.938506 -2.26047,-28.2842713 -2.63638,-1.9260377 -2.43148,-1.9820911 -9.5334,2.6080923 -5.76962,3.72909 -6.79414,4.04061 -13.28859,4.04061 l -7.03698,0 0,-3.052115 c 0,-2.271287 -0.64289,-3.3450291 -2.51295,-4.1970826 -2.23374,-1.0177691 -3.29858,-0.622557 -9.58434,3.5571916 -3.88926,2.586182 -7.30413,4.702159 -7.58857,4.702159 -0.28446,0 -0.52415,-1.250064 -0.53266,-2.777919 -0.037,-6.6338035 -4.19978,-7.2802002 -12.19777,-1.894036 -4.91811,3.312047 -6.09002,3.661802 -12.26948,3.661802 -6.15857,0 -6.83201,-0.199141 -6.83201,-2.020305 0,-2.739493 -3.7788,-6.377527 -5.813359,-5.5968003 -0.889095,0.341179 -15.400139,9.5216373 -32.246776,20.4010303 l -30.63024,19.780696 0,99.683207 c 0,76.1845 0.285752,99.96895 1.212184,100.89538 0.846477,0.84648 6.325524,1.21218 18.16129,1.21218 l 16.949097,0 6.922414,-5.05076 z"
       id="path4454"
       inkscape:connector-curvature="0"
       transform="translate(0,796.36216)"
       sodipodi:nodetypes="cssscccccsscssssssssssscsssssssssscsssccc" />
    <g
       id="g4381">
      <path
         sodipodi:nodetypes="ccc"
         inkscape:connector-curvature="0"
         id="path4229"
         d="m 119.25415,815.99226 -21.97668,0.0676 -47.267317,31.35968"
         style="fill:none;fill-rule:evenodd;stroke:#ffffff;stroke-width:8;stroke-linecap:butt;stroke-linejoin:round;stroke-miterlimit:4;stroke-dasharray:none;stroke-opacity:1" />
      <path
         style="fill:none;fill-rule:evenodd;stroke:#ffffff;stroke-width:8;stroke-linecap:butt;stroke-linejoin:round;stroke-miterlimit:4;stroke-dasharray:none;stroke-opacity:1"
         d="m 98.64286,815.82198 0.0931,-7.09822 L 39,847.25055 l -0.05772,194.47705 31.129147,0 0,-194.36074 60.357143,-38.57143 0,13.26786"
         id="path4235"
         inkscape:connector-curvature="0"
         sodipodi:nodetypes="cccccccc" />
      <path
         inkscape:connector-curvature="0"
         id="path4239"
         d="m 39,847.36216 31.071429,0"
         style="fill:none;fill-rule:evenodd;stroke:#ffffff;stroke-width:8;stroke-linecap:butt;stroke-linejoin:miter;stroke-miterlimit:4;stroke-dasharray:none;stroke-opacity:1" />
      <path
         sodipodi:nodetypes="ccc"
         inkscape:connector-curvature="0"
         id="path4295"
         d="m 171.25415,815.99226 -21.97668,0.0676 -47.26732,31.35968"
         style="fill:none;fill-rule:evenodd;stroke:#ffffff;stroke-width:8;stroke-linecap:butt;stroke-linejoin:round;stroke-miterlimit:4;stroke-dasharray:none;stroke-opacity:1" />
      <path
         style="fill:none;fill-rule:evenodd;stroke:#ffffff;stroke-width:8;stroke-linecap:butt;stroke-linejoin:round;stroke-miterlimit:4;stroke-dasharray:none;stroke-opacity:1"
         d="m 150.64286,815.82198 0.0931,-7.09822 L 91,847.25055 l -0.05772,194.47705 31.12915,0 0,-194.36074 60.35714,-38.57143 0,57.26786"
         id="path4297"
         inkscape:connector-curvature="0"
         sodipodi:nodetypes="cccccccc" />
      <path
         inkscape:connector-curvature="0"
         id="path4299"
         d="m 91,847.36216 31.07143,0"
         style="fill:none;fill-rule:evenodd;stroke:#ffffff;stroke-width:8;stroke-linecap:butt;stroke-linejoin:miter;stroke-miterlimit:4;stroke-dasharray:none;stroke-opacity:1" />
      <path
         sodipodi:nodetypes="ccc"
         inkscape:connector-curvature="0"
         id="path4311"
         d="m 217.25415,867.99226 -21.97668,0.0676 -39.26732,23.35968"
         style="fill:none;fill-rule:evenodd;stroke:#ffffff;stroke-width:8;stroke-linecap:butt;stroke-linejoin:round;stroke-miterlimit:4;stroke-dasharray:none;stroke-opacity:1" />
      <path
         style="fill:none;fill-rule:evenodd;stroke:#ffffff;stroke-width:8;stroke-linecap:butt;stroke-linejoin:round;stroke-miterlimit:4;stroke-dasharray:none;stroke-opacity:1"
         d="m 196.64286,867.82198 0.0931,-7.09822 L 145,891.25055 l -0.0577,138.47705 31.12915,0 0,-138.36074 52.35714,-30.57143 c 0.28884,44.49312 -0.18349,88.98635 -0.43683,133.47872 l -49.98161,35.14535"
         id="path4313"
         inkscape:connector-curvature="0"
         sodipodi:nodetypes="ccccccccc" />
      <path
         inkscape:connector-curvature="0"
         id="path4315"
         d="m 145,891.36216 31.07143,0"
         style="fill:none;fill-rule:evenodd;stroke:#ffffff;stroke-width:8;stroke-linecap:butt;stroke-linejoin:miter;stroke-miterlimit:4;stroke-dasharray:none;stroke-opacity:1"
         sodipodi:nodetypes="cc" />
      <path
         style="fill:none;fill-rule:evenodd;stroke:#ffffff;stroke-width:8;stroke-linecap:butt;stroke-linejoin:round;stroke-miterlimit:4;stroke-dasharray:none;stroke-opacity:1"
         d="m 90.760966,1026.7278 -20.750813,14.6921"
         id="path4352"
         inkscape:connector-curvature="0"
         sodipodi:nodetypes="cc" />
      <path
         sodipodi:nodetypes="cc"
         inkscape:connector-curvature="0"
         id="path4354"
         d="m 145.53889,1024.96 -23.52874,16.4599"
         style="fill:none;fill-rule:evenodd;stroke:#ffffff;stroke-width:8;stroke-linecap:butt;stroke-linejoin:round;stroke-miterlimit:4;stroke-dasharray:none;stroke-opacity:1" />
    </g>
    <g
       id="g4414">
      <path
         style="fill:none;fill-rule:evenodd;stroke:#ffffff;stroke-width:8;stroke-linecap:butt;stroke-linejoin:round;stroke-miterlimit:4;stroke-dasharray:none;stroke-opacity:1"
         d="m 119.25415,815.99226 -21.97668,0.0676 -47.267317,31.35968"
         id="path4416"
         inkscape:connector-curvature="0"
         sodipodi:nodetypes="ccc" />
      <path
         sodipodi:nodetypes="cccccccc"
         inkscape:connector-curvature="0"
         id="path4418"
         d="m 98.64286,815.82198 0.0931,-7.09822 L 39,847.25055 l -0.05772,194.47705 31.129147,0 0,-194.36074 60.357143,-38.57143 0,13.26786"
         style="fill:none;fill-rule:evenodd;stroke:#ffffff;stroke-width:8;stroke-linecap:butt;stroke-linejoin:round;stroke-miterlimit:4;stroke-dasharray:none;stroke-opacity:1" />
      <path
         style="fill:none;fill-rule:evenodd;stroke:#ffffff;stroke-width:8;stroke-linecap:butt;stroke-linejoin:miter;stroke-miterlimit:4;stroke-dasharray:none;stroke-opacity:1"
         d="m 39,847.36216 31.071429,0"
         id="path4420"
         inkscape:connector-curvature="0" />
      <path
         style="fill:none;fill-rule:evenodd;stroke:#ffffff;stroke-width:8;stroke-linecap:butt;stroke-linejoin:round;stroke-miterlimit:4;stroke-dasharray:none;stroke-opacity:1"
         d="m 171.25415,815.99226 -21.97668,0.0676 -47.26732,31.35968"
         id="path4422"
         inkscape:connector-curvature="0"
         sodipodi:nodetypes="ccc" />
      <path
         sodipodi:nodetypes="cccccccc"
         inkscape:connector-curvature="0"
         id="path4424"
         d="m 150.64286,815.82198 0.0931,-7.09822 L 91,847.25055 l -0.05772,194.47705 31.12915,0 0,-194.36074 60.35714,-38.57143 0,57.26786"
         style="fill:none;fill-rule:evenodd;stroke:#ffffff;stroke-width:8;stroke-linecap:butt;stroke-linejoin:round;stroke-miterlimit:4;stroke-dasharray:none;stroke-opacity:1" />
      <path
         style="fill:none;fill-rule:evenodd;stroke:#ffffff;stroke-width:8;stroke-linecap:butt;stroke-linejoin:miter;stroke-miterlimit:4;stroke-dasharray:none;stroke-opacity:1"
         d="m 91,847.36216 31.07143,0"
         id="path4426"
         inkscape:connector-curvature="0" />
      <path
         style="fill:none;fill-rule:evenodd;stroke:#ffffff;stroke-width:8;stroke-linecap:butt;stroke-linejoin:round;stroke-miterlimit:4;stroke-dasharray:none;stroke-opacity:1"
         d="m 217.25415,867.99226 -21.97668,0.0676 -39.26732,23.35968"
         id="path4428"
         inkscape:connector-curvature="0"
         sodipodi:nodetypes="ccc" />
      <path
         sodipodi:nodetypes="ccccccccc"
         inkscape:connector-curvature="0"
         id="path4430"
         d="m 196.64286,867.82198 0.0931,-7.09822 L 145,891.25055 l -0.0577,138.47705 31.12915,0 0,-138.36074 52.35714,-30.57143 c 0.28884,44.49312 -0.18349,88.98635 -0.43683,133.47872 l -49.98161,35.14535"
         style="fill:none;fill-rule:evenodd;stroke:#ffffff;stroke-width:8;stroke-linecap:butt;stroke-linejoin:round;stroke-miterlimit:4;stroke-dasharray:none;stroke-opacity:1" />
      <path
         sodipodi:nodetypes="cc"
         style="fill:none;fill-rule:evenodd;stroke:#ffffff;stroke-width:8;stroke-linecap:butt;stroke-linejoin:miter;stroke-miterlimit:4;stroke-dasharray:none;stroke-opacity:1"
         d="m 145,891.36216 31.07143,0"
         id="path4432"
         inkscape:connector-curvature="0" />
      <path
         sodipodi:nodetypes="cc"
         inkscape:connector-curvature="0"
         id="path4434"
         d="m 90.760966,1026.7278 -20.750813,14.6921"
         style="fill:none;fill-rule:evenodd;stroke:#ffffff;stroke-width:8;stroke-linecap:butt;stroke-linejoin:round;stroke-miterlimit:4;stroke-dasharray:none;stroke-opacity:1" />
      <path
         style="fill:none;fill-rule:evenodd;stroke:#ffffff;stroke-width:8;stroke-linecap:butt;stroke-linejoin:round;stroke-miterlimit:4;stroke-dasharray:none;stroke-opacity:1"
         d="m 145.53889,1024.96 -23.52874,16.4599"
         id="path4436"
         inkscape:connector-curvature="0"
         sodipodi:nodetypes="cc" />
    </g>
  </g>
</svg>
